<svg width="49" height="48" viewBox="0 0 49 48" fill="none" xmlns="http://www.w3.org/2000/svg">
<path d="M24.334 26.8571C21.6818 26.8571 19.1383 25.8537 17.2629 24.0677C15.3876 22.2816 14.334 19.8592 14.334 17.3333H18.334C18.334 18.8489 18.9661 20.3023 20.0913 21.3739C21.2166 22.4456 22.7427 23.0476 24.334 23.0476C25.9253 23.0476 27.4514 22.4456 28.5766 21.3739C29.7018 20.3023 30.334 18.8489 30.334 17.3333H34.334C34.334 19.8592 33.2804 22.2816 31.4051 24.0677C29.5297 25.8537 26.9861 26.8571 24.334 26.8571ZM24.334 7.80952C25.9253 7.80952 27.4514 8.41156 28.5766 9.4832C29.7018 10.5548 30.334 12.0083 30.334 13.5238H18.334C18.334 12.0083 18.9661 10.5548 20.0913 9.4832C21.2166 8.41156 22.7427 7.80952 24.334 7.80952ZM38.334 13.5238H34.334C34.334 12.2731 34.0753 11.0347 33.5728 9.87921C33.0702 8.72372 32.3336 7.67383 31.4051 6.78946C30.4765 5.90509 29.3741 5.20357 28.1608 4.72496C26.9476 4.24634 25.6472 4 24.334 4C21.6818 4 19.1383 5.0034 17.2629 6.78946C15.3876 8.57552 14.334 10.9979 14.334 13.5238H10.334C8.11398 13.5238 6.33398 15.219 6.33398 17.3333V40.1905C6.33398 41.2008 6.75541 42.1698 7.50556 42.8842C8.2557 43.5986 9.27312 44 10.334 44H38.334C39.3949 44 40.4123 43.5986 41.1624 42.8842C41.9126 42.1698 42.334 41.2008 42.334 40.1905V17.3333C42.334 16.323 41.9126 15.354 41.1624 14.6396C40.4123 13.9252 39.3949 13.5238 38.334 13.5238Z" fill="#0B549E"/>
</svg>
