<svg width="37" height="40" viewBox="0 0 37 40" fill="none" xmlns="http://www.w3.org/2000/svg">
<path d="M35.5984 18.8247L19.7074 1.16029C19.0415 0.420105 18.1237 0 17.1699 0H4.26632C2.28669 0 0.666992 1.80045 0.666992 4.001V18.3446C0.666992 19.4049 1.04492 20.4251 1.72879 21.1653L17.6198 38.8297C19.0235 40.3901 21.3091 40.3901 22.7129 38.8297L35.6164 24.4861C37.0202 22.9257 37.0202 20.4051 35.5984 18.8247ZM8.76547 12.003C7.27175 12.003 6.06598 10.6627 6.06598 9.00225C6.06598 7.34184 7.27175 6.0015 8.76547 6.0015C10.2592 6.0015 11.465 7.34184 11.465 9.00225C11.465 10.6627 10.2592 12.003 8.76547 12.003Z" fill="#0B549E"/>
</svg>