<svg width="36" height="40" viewBox="0 0 36 40" fill="none" xmlns="http://www.w3.org/2000/svg">
<path fill-rule="evenodd" clip-rule="evenodd" d="M18 4C15.4814 3.99948 13.0067 4.73297 10.8229 6.12725C8.63913 7.52153 6.82267 9.52783 5.55484 11.9459C4.28701 14.364 3.61215 17.1092 3.59762 19.9077C3.58308 22.7061 4.22938 25.4598 5.47201 27.894C6.31191 26.6811 7.39159 25.6991 8.62756 25.0239C9.86354 24.3487 11.2227 23.9984 12.6 24H23.4C24.7773 23.9984 26.1365 24.3487 27.3724 25.0239C28.6084 25.6991 29.6881 26.6811 30.528 27.894C31.7706 25.4598 32.4169 22.7061 32.4024 19.9077C32.3878 17.1092 31.713 14.364 30.4452 11.9459C29.1773 9.52783 27.3609 7.52153 25.1771 6.12725C22.9933 4.73297 20.5186 3.99948 18 4ZM32.2974 32.152C34.704 28.6659 36.0058 24.3935 36 20C36 8.95399 27.9414 0 18 0C8.05861 0 2.02558e-05 8.95399 2.02558e-05 20C-0.00592232 24.3935 1.29585 28.666 3.70262 32.152L3.69362 32.188L4.33262 33.014C6.02081 35.207 8.1169 36.9672 10.4764 38.1732C12.8359 39.3793 15.4028 40.0025 18 40C21.6492 40.0074 25.2133 38.7758 28.215 36.47C29.4947 35.4876 30.655 34.326 31.6674 33.014L32.3064 32.188L32.2974 32.152ZM18 7.99999C16.5678 7.99999 15.1943 8.63213 14.1816 9.75735C13.1689 10.8826 12.6 12.4087 12.6 14C12.6 15.5913 13.1689 17.1174 14.1816 18.2426C15.1943 19.3678 16.5678 20 18 20C19.4322 20 20.8057 19.3678 21.8184 18.2426C22.8311 17.1174 23.4 15.5913 23.4 14C23.4 12.4087 22.8311 10.8826 21.8184 9.75735C20.8057 8.63213 19.4322 7.99999 18 7.99999Z" fill="#0B549E"/>
</svg>